<svg class="svg-icon" xmlns="http://www.w3.org/2000/svg" xmlns:xlink="http://www.w3.org/1999/xlink"><defs><symbol viewBox="0 0 18 18" fill="none" id="health">
<g clip-path="url(#health_clip0_328_779)">
<path d="M11.805 0C10.41 0 9.1275 0.5775 8.25 1.5525C7.3725 0.5775 6.09 0 4.695 0C2.1075 0 0 2.0175 0 4.5C0 10.8525 7.545 15.45 7.8675 15.645C7.98 15.7125 8.115 15.75 8.25 15.75C8.3175 15.75 8.3775 15.7425 8.445 15.72C7.875 14.775 7.5 13.6725 7.5 12.4125V9.405C7.5 8.52 8.0625 7.7325 8.9025 7.4475L12.8325 6.1125C13.26 5.9625 13.74 5.9625 14.1675 6.1125L16.1775 6.795C16.38 6.06 16.5 5.295 16.5 4.5C16.5 2.0175 14.3925 0 11.805 0V0Z" fill="#131313" />
<path d="M17.6182 8.86939L13.6807 7.52989C13.5637 7.48939 13.4363 7.48939 13.3193 7.52989L9.38175 8.86939C9.153 8.94664 9 9.16039 9 9.40189V12.4154C9 16.0934 13.1055 17.8814 13.2803 17.9556C13.4213 18.0149 13.5787 18.0149 13.7197 17.9556C13.8945 17.8806 18 16.0934 18 12.4154V9.40189C18 9.16039 17.847 8.94664 17.6182 8.86939ZM15.9645 11.7134L13.902 14.3384C13.6395 14.6736 13.1475 14.7224 12.8243 14.4449L11.5117 13.3199C11.1967 13.0506 11.16 12.5766 11.4308 12.2624C11.7 11.9481 12.174 11.9121 12.4875 12.1814L13.206 12.7971L14.7847 10.7879C15.0405 10.4624 15.5115 10.4046 15.8378 10.6619C16.164 10.9161 16.221 11.3879 15.9645 11.7134Z" fill="#131313" />
</g>
<defs>

</defs>
</symbol><clipPath id="health_clip0_328_779">
<rect width="18" height="18" fill="white" />
</clipPath><symbol viewBox="0 0 154 34" fill="none" id="logo">
<g clip-path="url(#logo_clip0_269_1142)">
<path d="M146.196 2.23587H91.9301C87.6189 2.23587 84.1241 5.56055 84.1241 9.66176V26.5741C84.1241 30.6753 87.6189 34 91.9301 34H146.196C150.507 34 154.002 30.6753 154.002 26.5741V9.66176C154.002 5.56055 150.507 2.23587 146.196 2.23587Z" fill="#C4A012" />
<path d="M143.372 0H89.1056C84.7944 0 81.2996 3.32468 81.2996 7.42588V24.3383C81.2996 28.4395 84.7944 31.7641 89.1056 31.7641H143.372C147.683 31.7641 151.178 28.4395 151.178 24.3383V7.42588C151.178 3.32468 147.683 0 143.372 0Z" fill="#F5BF0C" />
<path d="M0 16.8856C0 19.3997 2.23712 20.0095 5.99101 20.0095C9.37892 20.0095 11.6945 19.5364 11.6945 17.2094C11.6945 15.0073 9.4574 14.8203 5.84726 14.6333C3.1789 14.4847 2.62953 14.3598 2.62953 13.6878C2.62953 13.0411 3.1789 12.8296 5.49369 12.8296C7.93982 12.8296 8.94769 13.0654 8.94769 14.0242H11.3021C11.3021 11.8709 9.20874 11.0496 5.75556 11.0496C2.32883 11.0496 0.275094 11.6595 0.275094 13.5762C0.275094 15.5292 1.85794 16.1272 5.84726 16.3009C8.81633 16.4377 9.34009 16.5626 9.34009 17.2841C9.34009 17.9686 8.59411 18.2303 6.12153 18.2303C3.13925 18.2303 2.35444 17.8067 2.35444 16.8856H0Z" fill="white" />
<path d="M22.1356 11.1744H14.9409V19.8845H17.2953V17.5582H22.1356C24.2157 17.5582 25.6416 16.3134 25.6416 14.3722C25.6416 12.4311 24.2157 11.1744 22.1356 11.1744ZM21.4813 15.6792H17.2953V13.0535H21.4813C22.1876 13.0535 23.2864 13.0535 23.2864 14.3722C23.2864 15.6792 22.1876 15.6792 21.4813 15.6792Z" fill="white" />
<path d="M97.1061 11.5274H89.9114V20.2374H92.2659V17.9104H97.1061C99.1854 17.9104 100.611 16.6663 100.611 14.7252C100.611 12.784 99.1854 11.5274 97.1061 11.5274ZM96.4518 16.0313H92.2659V13.4057H96.4518C97.1581 13.4057 98.2569 13.4057 98.2569 14.7252C98.2569 16.0313 97.1581 16.0313 96.4518 16.0313Z" fill="#131313" />
<path d="M106.203 18.3584V11.5274H103.849V20.2374H113.266V18.3584H106.203Z" fill="#131313" />
<path d="M127.644 15.8695V11.5274H125.289V15.8695C125.289 17.0766 124.936 18.4833 121.889 18.4833C118.84 18.4833 118.488 17.0892 118.488 15.8695V11.5274H116.133V15.8695C116.133 18.9061 117.86 20.3624 121.889 20.3624C125.905 20.3624 127.644 18.8936 127.644 15.8695Z" fill="#131313" />
<path d="M130.885 17.2389C130.885 19.753 133.122 20.3628 136.876 20.3628C140.264 20.3628 142.58 19.8897 142.58 17.5627C142.58 15.3599 140.342 15.1736 136.732 14.9866C134.064 14.8373 133.515 14.7131 133.515 14.0411C133.515 13.3944 134.064 13.1822 136.379 13.1822C138.825 13.1822 139.833 13.4187 139.833 14.3775H142.187C142.187 12.2242 140.094 11.4029 136.641 11.4029C133.214 11.4029 131.16 12.0128 131.16 13.9288C131.16 15.8825 132.743 16.4798 136.732 16.6542C139.701 16.791 140.225 16.9159 140.225 17.6374C140.225 18.3219 139.479 18.5828 137.007 18.5828C134.024 18.5828 133.239 18.16 133.239 17.2389H130.885Z" fill="#131313" />
<path d="M50.1038 15.4782C50.1038 18.3773 51.8304 19.9703 55.8594 19.9703C59.5092 19.9703 61.3398 18.639 61.5753 16.1124H59.182C58.9598 17.5317 57.8082 18.0913 55.8594 18.0913C53.4785 18.0913 52.4583 17.27 52.4583 15.4782C52.4583 13.6989 53.4653 12.8895 55.8594 12.8895C57.8214 12.8895 58.9598 13.4372 59.182 14.8432H61.5753C61.3398 12.3299 59.5092 11.0104 55.8594 11.0104C51.8304 11.0104 50.1038 12.5908 50.1038 15.4782Z" fill="white" />
<path d="M74.4969 12.9147V11.1354H64.8173V19.8462H74.4969V18.0662H67.1717V16.2995H74.4969V14.6821H67.1717V12.9147H74.4969Z" fill="white" />
<path fill-rule="evenodd" clip-rule="evenodd" d="M34.4936 14.473L33.546 16.22L43.5594 16.235L45.7362 20.2375H48.3063L40.2797 5.47219H34.8917L26.8867 20.2375H29.6682L31.8591 16.1957L32.8041 14.4526L36.6068 7.43771L38.777 7.43535L42.5912 14.4526L34.4936 14.473Z" fill="white" />
</g>
<defs>

</defs>
</symbol><clipPath id="logo_clip0_269_1142">
<rect width="154" height="34" fill="white" />
</clipPath><symbol viewBox="0 0 18 18" fill="none" id="notification">
<path d="M8.23875 18C9.59708 18 10.7333 17.0317 10.9943 15.75H5.48325C5.74431 17.0317 6.88057 18 8.23875 18Z" fill="#131313" />
<path d="M13.498 8.99939C13.495 8.99939 13.492 9.00008 13.489 9.00008C10.5948 9.00008 8.23901 6.64502 8.23901 3.75012C8.23901 2.9543 8.42207 2.20201 8.74081 1.52553C8.57574 1.50987 8.40847 1.50012 8.23901 1.50012C5.33958 1.50012 2.98905 3.85051 2.98905 6.75008V8.84105C2.98905 10.3253 2.3388 11.7263 1.19801 12.6908C0.817743 13.0156 0.648966 13.533 0.785471 14.0379C0.944498 14.6251 1.52499 15.0001 2.13404 15.0001H14.3403C14.9793 15.0001 15.5816 14.5861 15.7112 13.9599C15.8117 13.4754 15.6393 12.9915 15.2635 12.6758C14.173 11.7616 13.5422 10.4183 13.498 8.99939Z" fill="#131313" />
<path d="M17.2388 3.75005C17.2388 5.82111 15.5599 7.49995 13.4887 7.49995C11.4177 7.49995 9.73883 5.82111 9.73883 3.75005C9.73883 1.67899 11.4177 0 13.4887 0C15.5599 0 17.2388 1.67899 17.2388 3.75005Z" fill="#131313" />
</symbol><symbol viewBox="0 0 18 18" fill="none" id="people">
<g clip-path="url(#people_clip0_328_761)">
<path d="M6.75 10.125C8.61396 10.125 10.125 8.61396 10.125 6.75C10.125 4.88604 8.61396 3.375 6.75 3.375C4.88604 3.375 3.375 4.88604 3.375 6.75C3.375 8.61396 4.88604 10.125 6.75 10.125Z" fill="#131313" />
<path d="M13.3031 13.6362C9.50625 10.4491 3.99262 10.4491 0.19575 13.6362C0.072 13.7408 0 13.8961 0 14.0592V15.6128C0 16.3733 0.504 16.8751 1.125 16.8751H12.375C12.996 16.8751 13.5 16.3733 13.5 15.7512V14.2234C13.5 13.8961 13.428 13.7408 13.3031 13.6362Z" fill="#131313" />
<path d="M11.2495 6.75C11.2495 7.13363 11.2 7.506 11.1089 7.86037C11.1573 7.86263 11.2012 7.875 11.2495 7.875C13.1103 7.875 14.6245 6.36075 14.6245 4.5C14.6245 2.63925 13.1103 1.125 11.2495 1.125C10.0953 1.125 9.07716 1.70888 8.46854 2.59425C10.0987 3.2715 11.2495 4.878 11.2495 6.75Z" fill="#131313" />
<path d="M17.8034 11.3863C15.7334 9.6493 13.1537 8.8663 10.6202 9.0238C10.2917 9.57618 9.85411 10.0577 9.32874 10.4278C11.0286 10.8261 12.6576 11.6136 14.0684 12.8083C14.4329 13.1166 14.6252 13.5857 14.6252 14.0627V14.6252H16.8752C17.4962 14.6252 18.0002 14.1212 18.0002 13.5002V11.8127C18.0002 11.6496 17.9282 11.4909 17.8034 11.3863Z" fill="#131313" />
</g>
<defs>

</defs>
</symbol><clipPath id="people_clip0_328_761">
<rect width="18" height="18" fill="white" />
</clipPath><symbol viewBox="0 0 18 18" fill="none" id="stack">
<g clip-path="url(#stack_clip0_328_753)">
<path d="M17.4375 18.0001H14.4375C14.127 18.0001 13.875 17.7481 13.875 17.4376V16.5001H11.625V17.4376C11.625 17.7481 11.373 18.0001 11.0625 18.0001H6.9375C6.627 18.0001 6.375 17.7481 6.375 17.4376V16.5001H4.125V17.4376C4.125 17.7481 3.873 18.0001 3.5625 18.0001H0.5625C0.252 18.0001 0 17.7481 0 17.4376V15.0001H18V17.4376C18 17.7481 17.748 18.0001 17.4375 18.0001Z" fill="#131313" />
<path d="M11.9994 0H9.74936V1.5C9.74936 1.914 9.41336 2.25 8.99936 2.25C8.58536 2.25 8.24936 1.914 8.24936 1.5V0H5.99936C5.58536 0 5.24936 0.336 5.24936 0.75V5.25C5.24936 5.664 5.58536 6 5.99936 6H11.9994C12.4134 6 12.7494 5.664 12.7494 5.25V0.75C12.7494 0.336 12.4134 0 11.9994 0Z" fill="#131313" />
<path d="M7.49936 7.49988H5.24936V8.99987C5.24936 9.41387 4.91336 9.74987 4.49936 9.74987C4.08536 9.74987 3.74936 9.41387 3.74936 8.99987V7.49988H1.49936C1.08536 7.49988 0.749359 7.83588 0.749359 8.24988V12.7499C0.749359 13.1639 1.08536 13.4999 1.49936 13.4999H7.49936C7.91336 13.4999 8.24936 13.1639 8.24936 12.7499V8.24988C8.24936 7.83588 7.91336 7.49988 7.49936 7.49988Z" fill="#131313" />
<path d="M16.4994 7.49988H14.2494V8.99987C14.2494 9.41387 13.9134 9.74987 13.4994 9.74987C13.0854 9.74987 12.7494 9.41387 12.7494 8.99987V7.49988H10.4994C10.0854 7.49988 9.74939 7.83588 9.74939 8.24988V12.7499C9.74939 13.1639 10.0854 13.4999 10.4994 13.4999H16.4994C16.9134 13.4999 17.2494 13.1639 17.2494 12.7499V8.24988C17.2494 7.83588 16.9134 7.49988 16.4994 7.49988Z" fill="#131313" />
</g>
<defs>

</defs>
</symbol><clipPath id="stack_clip0_328_753">
<rect width="18" height="18" fill="white" />
</clipPath></defs></svg>