<svg width="18" height="18" viewBox="0 0 18 18" fill="none" xmlns="http://www.w3.org/2000/svg">
<g clip-path="url(#clip0_328_779)">
<path d="M11.805 0C10.41 0 9.1275 0.5775 8.25 1.5525C7.3725 0.5775 6.09 0 4.695 0C2.1075 0 0 2.0175 0 4.5C0 10.8525 7.545 15.45 7.8675 15.645C7.98 15.7125 8.115 15.75 8.25 15.75C8.3175 15.75 8.3775 15.7425 8.445 15.72C7.875 14.775 7.5 13.6725 7.5 12.4125V9.405C7.5 8.52 8.0625 7.7325 8.9025 7.4475L12.8325 6.1125C13.26 5.9625 13.74 5.9625 14.1675 6.1125L16.1775 6.795C16.38 6.06 16.5 5.295 16.5 4.5C16.5 2.0175 14.3925 0 11.805 0V0Z" fill="#131313"/>
<path d="M17.6182 8.86939L13.6807 7.52989C13.5637 7.48939 13.4363 7.48939 13.3193 7.52989L9.38175 8.86939C9.153 8.94664 9 9.16039 9 9.40189V12.4154C9 16.0934 13.1055 17.8814 13.2803 17.9556C13.4213 18.0149 13.5787 18.0149 13.7197 17.9556C13.8945 17.8806 18 16.0934 18 12.4154V9.40189C18 9.16039 17.847 8.94664 17.6182 8.86939ZM15.9645 11.7134L13.902 14.3384C13.6395 14.6736 13.1475 14.7224 12.8243 14.4449L11.5117 13.3199C11.1967 13.0506 11.16 12.5766 11.4308 12.2624C11.7 11.9481 12.174 11.9121 12.4875 12.1814L13.206 12.7971L14.7847 10.7879C15.0405 10.4624 15.5115 10.4046 15.8378 10.6619C16.164 10.9161 16.221 11.3879 15.9645 11.7134Z" fill="#131313"/>
</g>
<defs>
<clipPath id="clip0_328_779">
<rect width="18" height="18" fill="white"/>
</clipPath>
</defs>
</svg>
