<svg width="154" height="34" viewBox="0 0 154 34" fill="none" xmlns="http://www.w3.org/2000/svg">
<g clip-path="url(#clip0_269_1142)">
<path d="M146.196 2.23587H91.9301C87.6189 2.23587 84.1241 5.56055 84.1241 9.66176V26.5741C84.1241 30.6753 87.6189 34 91.9301 34H146.196C150.507 34 154.002 30.6753 154.002 26.5741V9.66176C154.002 5.56055 150.507 2.23587 146.196 2.23587Z" fill="#C4A012"/>
<path d="M143.372 0H89.1056C84.7944 0 81.2996 3.32468 81.2996 7.42588V24.3383C81.2996 28.4395 84.7944 31.7641 89.1056 31.7641H143.372C147.683 31.7641 151.178 28.4395 151.178 24.3383V7.42588C151.178 3.32468 147.683 0 143.372 0Z" fill="#F5BF0C"/>
<path d="M0 16.8856C0 19.3997 2.23712 20.0095 5.99101 20.0095C9.37892 20.0095 11.6945 19.5364 11.6945 17.2094C11.6945 15.0073 9.4574 14.8203 5.84726 14.6333C3.1789 14.4847 2.62953 14.3598 2.62953 13.6878C2.62953 13.0411 3.1789 12.8296 5.49369 12.8296C7.93982 12.8296 8.94769 13.0654 8.94769 14.0242H11.3021C11.3021 11.8709 9.20874 11.0496 5.75556 11.0496C2.32883 11.0496 0.275094 11.6595 0.275094 13.5762C0.275094 15.5292 1.85794 16.1272 5.84726 16.3009C8.81633 16.4377 9.34009 16.5626 9.34009 17.2841C9.34009 17.9686 8.59411 18.2303 6.12153 18.2303C3.13925 18.2303 2.35444 17.8067 2.35444 16.8856H0Z" fill="white"/>
<path d="M22.1356 11.1744H14.9409V19.8845H17.2953V17.5582H22.1356C24.2157 17.5582 25.6416 16.3134 25.6416 14.3722C25.6416 12.4311 24.2157 11.1744 22.1356 11.1744ZM21.4813 15.6792H17.2953V13.0535H21.4813C22.1876 13.0535 23.2864 13.0535 23.2864 14.3722C23.2864 15.6792 22.1876 15.6792 21.4813 15.6792Z" fill="white"/>
<path d="M97.1061 11.5274H89.9114V20.2374H92.2659V17.9104H97.1061C99.1854 17.9104 100.611 16.6663 100.611 14.7252C100.611 12.784 99.1854 11.5274 97.1061 11.5274ZM96.4518 16.0313H92.2659V13.4057H96.4518C97.1581 13.4057 98.2569 13.4057 98.2569 14.7252C98.2569 16.0313 97.1581 16.0313 96.4518 16.0313Z" fill="#131313"/>
<path d="M106.203 18.3584V11.5274H103.849V20.2374H113.266V18.3584H106.203Z" fill="#131313"/>
<path d="M127.644 15.8695V11.5274H125.289V15.8695C125.289 17.0766 124.936 18.4833 121.889 18.4833C118.84 18.4833 118.488 17.0892 118.488 15.8695V11.5274H116.133V15.8695C116.133 18.9061 117.86 20.3624 121.889 20.3624C125.905 20.3624 127.644 18.8936 127.644 15.8695Z" fill="#131313"/>
<path d="M130.885 17.2389C130.885 19.753 133.122 20.3628 136.876 20.3628C140.264 20.3628 142.58 19.8897 142.58 17.5627C142.58 15.3599 140.342 15.1736 136.732 14.9866C134.064 14.8373 133.515 14.7131 133.515 14.0411C133.515 13.3944 134.064 13.1822 136.379 13.1822C138.825 13.1822 139.833 13.4187 139.833 14.3775H142.187C142.187 12.2242 140.094 11.4029 136.641 11.4029C133.214 11.4029 131.16 12.0128 131.16 13.9288C131.16 15.8825 132.743 16.4798 136.732 16.6542C139.701 16.791 140.225 16.9159 140.225 17.6374C140.225 18.3219 139.479 18.5828 137.007 18.5828C134.024 18.5828 133.239 18.16 133.239 17.2389H130.885Z" fill="#131313"/>
<path d="M50.1038 15.4782C50.1038 18.3773 51.8304 19.9703 55.8594 19.9703C59.5092 19.9703 61.3398 18.639 61.5753 16.1124H59.182C58.9598 17.5317 57.8082 18.0913 55.8594 18.0913C53.4785 18.0913 52.4583 17.27 52.4583 15.4782C52.4583 13.6989 53.4653 12.8895 55.8594 12.8895C57.8214 12.8895 58.9598 13.4372 59.182 14.8432H61.5753C61.3398 12.3299 59.5092 11.0104 55.8594 11.0104C51.8304 11.0104 50.1038 12.5908 50.1038 15.4782Z" fill="white"/>
<path d="M74.4969 12.9147V11.1354H64.8173V19.8462H74.4969V18.0662H67.1717V16.2995H74.4969V14.6821H67.1717V12.9147H74.4969Z" fill="white"/>
<path fill-rule="evenodd" clip-rule="evenodd" d="M34.4936 14.473L33.546 16.22L43.5594 16.235L45.7362 20.2375H48.3063L40.2797 5.47219H34.8917L26.8867 20.2375H29.6682L31.8591 16.1957L32.8041 14.4526L36.6068 7.43771L38.777 7.43535L42.5912 14.4526L34.4936 14.473Z" fill="white"/>
</g>
<defs>
<clipPath id="clip0_269_1142">
<rect width="154" height="34" fill="white"/>
</clipPath>
</defs>
</svg>
