<svg width="18" height="18" viewBox="0 0 18 18" fill="none" xmlns="http://www.w3.org/2000/svg">
<g clip-path="url(#clip0_328_753)">
<path d="M17.4375 18.0001H14.4375C14.127 18.0001 13.875 17.7481 13.875 17.4376V16.5001H11.625V17.4376C11.625 17.7481 11.373 18.0001 11.0625 18.0001H6.9375C6.627 18.0001 6.375 17.7481 6.375 17.4376V16.5001H4.125V17.4376C4.125 17.7481 3.873 18.0001 3.5625 18.0001H0.5625C0.252 18.0001 0 17.7481 0 17.4376V15.0001H18V17.4376C18 17.7481 17.748 18.0001 17.4375 18.0001Z" fill="#131313"/>
<path d="M11.9994 0H9.74936V1.5C9.74936 1.914 9.41336 2.25 8.99936 2.25C8.58536 2.25 8.24936 1.914 8.24936 1.5V0H5.99936C5.58536 0 5.24936 0.336 5.24936 0.75V5.25C5.24936 5.664 5.58536 6 5.99936 6H11.9994C12.4134 6 12.7494 5.664 12.7494 5.25V0.75C12.7494 0.336 12.4134 0 11.9994 0Z" fill="#131313"/>
<path d="M7.49936 7.49988H5.24936V8.99987C5.24936 9.41387 4.91336 9.74987 4.49936 9.74987C4.08536 9.74987 3.74936 9.41387 3.74936 8.99987V7.49988H1.49936C1.08536 7.49988 0.749359 7.83588 0.749359 8.24988V12.7499C0.749359 13.1639 1.08536 13.4999 1.49936 13.4999H7.49936C7.91336 13.4999 8.24936 13.1639 8.24936 12.7499V8.24988C8.24936 7.83588 7.91336 7.49988 7.49936 7.49988Z" fill="#131313"/>
<path d="M16.4994 7.49988H14.2494V8.99987C14.2494 9.41387 13.9134 9.74987 13.4994 9.74987C13.0854 9.74987 12.7494 9.41387 12.7494 8.99987V7.49988H10.4994C10.0854 7.49988 9.74939 7.83588 9.74939 8.24988V12.7499C9.74939 13.1639 10.0854 13.4999 10.4994 13.4999H16.4994C16.9134 13.4999 17.2494 13.1639 17.2494 12.7499V8.24988C17.2494 7.83588 16.9134 7.49988 16.4994 7.49988Z" fill="#131313"/>
</g>
<defs>
<clipPath id="clip0_328_753">
<rect width="18" height="18" fill="white"/>
</clipPath>
</defs>
</svg>
