<svg width="18" height="18" viewBox="0 0 18 18" fill="none" xmlns="http://www.w3.org/2000/svg">
<path d="M8.23875 18C9.59708 18 10.7333 17.0317 10.9943 15.75H5.48325C5.74431 17.0317 6.88057 18 8.23875 18Z" fill="#131313"/>
<path d="M13.498 8.99939C13.495 8.99939 13.492 9.00008 13.489 9.00008C10.5948 9.00008 8.23901 6.64502 8.23901 3.75012C8.23901 2.9543 8.42207 2.20201 8.74081 1.52553C8.57574 1.50987 8.40847 1.50012 8.23901 1.50012C5.33958 1.50012 2.98905 3.85051 2.98905 6.75008V8.84105C2.98905 10.3253 2.3388 11.7263 1.19801 12.6908C0.817743 13.0156 0.648966 13.533 0.785471 14.0379C0.944498 14.6251 1.52499 15.0001 2.13404 15.0001H14.3403C14.9793 15.0001 15.5816 14.5861 15.7112 13.9599C15.8117 13.4754 15.6393 12.9915 15.2635 12.6758C14.173 11.7616 13.5422 10.4183 13.498 8.99939Z" fill="#131313"/>
<path d="M17.2388 3.75005C17.2388 5.82111 15.5599 7.49995 13.4887 7.49995C11.4177 7.49995 9.73883 5.82111 9.73883 3.75005C9.73883 1.67899 11.4177 0 13.4887 0C15.5599 0 17.2388 1.67899 17.2388 3.75005Z" fill="#131313"/>
</svg>
