<svg width="18" height="18" viewBox="0 0 18 18" fill="none" xmlns="http://www.w3.org/2000/svg">
<g clip-path="url(#clip0_328_761)">
<path d="M6.75 10.125C8.61396 10.125 10.125 8.61396 10.125 6.75C10.125 4.88604 8.61396 3.375 6.75 3.375C4.88604 3.375 3.375 4.88604 3.375 6.75C3.375 8.61396 4.88604 10.125 6.75 10.125Z" fill="#131313"/>
<path d="M13.3031 13.6362C9.50625 10.4491 3.99262 10.4491 0.19575 13.6362C0.072 13.7408 0 13.8961 0 14.0592V15.6128C0 16.3733 0.504 16.8751 1.125 16.8751H12.375C12.996 16.8751 13.5 16.3733 13.5 15.7512V14.2234C13.5 13.8961 13.428 13.7408 13.3031 13.6362Z" fill="#131313"/>
<path d="M11.2495 6.75C11.2495 7.13363 11.2 7.506 11.1089 7.86037C11.1573 7.86263 11.2012 7.875 11.2495 7.875C13.1103 7.875 14.6245 6.36075 14.6245 4.5C14.6245 2.63925 13.1103 1.125 11.2495 1.125C10.0953 1.125 9.07716 1.70888 8.46854 2.59425C10.0987 3.2715 11.2495 4.878 11.2495 6.75Z" fill="#131313"/>
<path d="M17.8034 11.3863C15.7334 9.6493 13.1537 8.8663 10.6202 9.0238C10.2917 9.57618 9.85411 10.0577 9.32874 10.4278C11.0286 10.8261 12.6576 11.6136 14.0684 12.8083C14.4329 13.1166 14.6252 13.5857 14.6252 14.0627V14.6252H16.8752C17.4962 14.6252 18.0002 14.1212 18.0002 13.5002V11.8127C18.0002 11.6496 17.9282 11.4909 17.8034 11.3863Z" fill="#131313"/>
</g>
<defs>
<clipPath id="clip0_328_761">
<rect width="18" height="18" fill="white"/>
</clipPath>
</defs>
</svg>
